<?xml version="1.0" encoding="utf-8"?>
<!-- Generator: Adobe Illustrator 25.2.1, SVG Export Plug-In . SVG Version: 6.00 Build 0)  -->
<svg version="1.1" xmlns="http://www.w3.org/2000/svg" xmlns:xlink="http://www.w3.org/1999/xlink" x="0px" y="0px"
	 viewBox="0 0 438.9 395.2" style="enable-background:new 0 0 438.9 395.2;" xml:space="preserve">
<style type="text/css">
	.st0{display:none;}
	.st1{fill:#1ED761;}
	.st2{fill:#2E47BB;}
</style>
<g id="Layer_2_1_" class="st0">
	
		<image style="display:inline;overflow:visible;" width="476" height="342" xlink:href="burst-mobile.png"  transform="matrix(1 0 0 1 -3.5962 53.25)">
	</image>
</g>
<g id="Layer_3">
	<path class="st1" d="M122.7,303.8c-1.4-5.7-2.2-11.6-2.2-17.6c0-41.4,35.4-74.9,79-74.9s79,33.5,79,74.9c0,4.7-0.5,9.3-1.3,13.8"/>
	<path class="st1" d="M-0.9,395.4C46,332,121.3,290.9,206.3,290.9c85,0,160.4,41.2,207.3,104.7"/>
	<path class="st1" d="M438.9,300.6c-21.5-35.3-33.9-76.3-33.9-119.9c0-43.9,12.5-85.1,34.3-120.6"/>
	<circle class="st1" cx="80.9" cy="42.2" r="42.2"/>
	<path class="st2" d="M122.3,303.6c8.4,32.8,39.6,57.2,76.8,57.2c38.6,0,70.8-26.3,77.7-61c0,0-72.6-22.1-152.9,3.3L122.3,303.6z"/>
</g>
</svg>
